<mxfile host="app.diagrams.net" agent="Mozilla/5.0 (Windows NT 10.0; Win64; x64) AppleWebKit/537.36 (KHTML, like Gecko) Chrome/134.0.0.0 Safari/537.36" version="26.2.2">
  <diagram name="Strona-1" id="Jz_w7U-IuYaoBGibuUJy">
    <mxGraphModel dx="875" dy="784" grid="1" gridSize="10" guides="1" tooltips="1" connect="1" arrows="1" fold="1" page="1" pageScale="1" pageWidth="827" pageHeight="1169" math="0" shadow="0">
      <root>
        <mxCell id="0" />
        <mxCell id="1" parent="0" />
        <mxCell id="9Wi5u_XWyRekye9pmXcA-2" value="Student" style="swimlane;fontStyle=0;childLayout=stackLayout;horizontal=1;startSize=30;horizontalStack=0;resizeParent=1;resizeParentMax=0;resizeLast=0;collapsible=1;marginBottom=0;whiteSpace=wrap;html=1;" parent="1" vertex="1">
          <mxGeometry x="60" y="510" width="140" height="180" as="geometry" />
        </mxCell>
        <mxCell id="9Wi5u_XWyRekye9pmXcA-3" value="StudentID(PK)&lt;div&gt;&lt;br&gt;&lt;/div&gt;&lt;div&gt;Imie&lt;/div&gt;&lt;div&gt;&lt;br&gt;&lt;/div&gt;&lt;div&gt;Nazwisko&lt;/div&gt;&lt;div&gt;&lt;br&gt;&lt;/div&gt;&lt;div&gt;Email&lt;/div&gt;&lt;div&gt;&lt;br&gt;&lt;/div&gt;&lt;div&gt;DataUrodzenia&lt;/div&gt;" style="text;strokeColor=none;fillColor=none;align=left;verticalAlign=middle;spacingLeft=4;spacingRight=4;overflow=hidden;points=[[0,0.5],[1,0.5]];portConstraint=eastwest;rotatable=0;whiteSpace=wrap;html=1;" parent="9Wi5u_XWyRekye9pmXcA-2" vertex="1">
          <mxGeometry y="30" width="140" height="150" as="geometry" />
        </mxCell>
        <mxCell id="j3mY_wfvXanM_TIgXk8w-2" value="instruktorzy" style="swimlane;fontStyle=0;childLayout=stackLayout;horizontal=1;startSize=30;horizontalStack=0;resizeParent=1;resizeParentMax=0;resizeLast=0;collapsible=1;marginBottom=0;whiteSpace=wrap;html=1;" vertex="1" parent="1">
          <mxGeometry x="250" y="190" width="140" height="180" as="geometry" />
        </mxCell>
        <mxCell id="j3mY_wfvXanM_TIgXk8w-3" value="InstruktorID(PK)&lt;div&gt;&lt;br&gt;&lt;/div&gt;&lt;div&gt;Imie&lt;/div&gt;&lt;div&gt;&lt;br&gt;&lt;/div&gt;&lt;div&gt;Nazwisko&lt;/div&gt;&lt;div&gt;&lt;br&gt;&lt;/div&gt;&lt;div&gt;Email&lt;/div&gt;&lt;div&gt;&lt;br&gt;&lt;/div&gt;&lt;div&gt;Specjalizacja&lt;/div&gt;" style="text;strokeColor=none;fillColor=none;align=left;verticalAlign=middle;spacingLeft=4;spacingRight=4;overflow=hidden;points=[[0,0.5],[1,0.5]];portConstraint=eastwest;rotatable=0;whiteSpace=wrap;html=1;" vertex="1" parent="j3mY_wfvXanM_TIgXk8w-2">
          <mxGeometry y="30" width="140" height="150" as="geometry" />
        </mxCell>
        <mxCell id="j3mY_wfvXanM_TIgXk8w-4" value="zapisy" style="swimlane;fontStyle=0;childLayout=stackLayout;horizontal=1;startSize=30;horizontalStack=0;resizeParent=1;resizeParentMax=0;resizeLast=0;collapsible=1;marginBottom=0;whiteSpace=wrap;html=1;" vertex="1" parent="1">
          <mxGeometry x="274" y="525" width="140" height="120" as="geometry" />
        </mxCell>
        <mxCell id="j3mY_wfvXanM_TIgXk8w-5" value="StudentID(Fk)&lt;div&gt;&lt;br&gt;&lt;/div&gt;&lt;div&gt;KursID(Fk)&lt;/div&gt;" style="text;strokeColor=none;fillColor=none;align=left;verticalAlign=middle;spacingLeft=4;spacingRight=4;overflow=hidden;points=[[0,0.5],[1,0.5]];portConstraint=eastwest;rotatable=0;whiteSpace=wrap;html=1;" vertex="1" parent="j3mY_wfvXanM_TIgXk8w-4">
          <mxGeometry y="30" width="140" height="90" as="geometry" />
        </mxCell>
        <mxCell id="j3mY_wfvXanM_TIgXk8w-10" style="edgeStyle=orthogonalEdgeStyle;rounded=0;orthogonalLoop=1;jettySize=auto;html=1;entryX=0.007;entryY=0.344;entryDx=0;entryDy=0;entryPerimeter=0;" edge="1" parent="1" source="9Wi5u_XWyRekye9pmXcA-3" target="j3mY_wfvXanM_TIgXk8w-5">
          <mxGeometry relative="1" as="geometry" />
        </mxCell>
        <mxCell id="j3mY_wfvXanM_TIgXk8w-11" value="Kursy" style="swimlane;fontStyle=0;childLayout=stackLayout;horizontal=1;startSize=30;horizontalStack=0;resizeParent=1;resizeParentMax=0;resizeLast=0;collapsible=1;marginBottom=0;whiteSpace=wrap;html=1;" vertex="1" parent="1">
          <mxGeometry x="500" y="490" width="140" height="130" as="geometry" />
        </mxCell>
        <mxCell id="j3mY_wfvXanM_TIgXk8w-12" value="KursyID(PK)&lt;div&gt;&lt;br&gt;&lt;/div&gt;&lt;div&gt;LekcjaID(FK)&lt;/div&gt;&lt;div&gt;&lt;br&gt;&lt;/div&gt;&lt;div&gt;Tytul&lt;/div&gt;&lt;div&gt;&lt;br&gt;&lt;/div&gt;" style="text;strokeColor=none;fillColor=none;align=left;verticalAlign=middle;spacingLeft=4;spacingRight=4;overflow=hidden;points=[[0,0.5],[1,0.5]];portConstraint=eastwest;rotatable=0;whiteSpace=wrap;html=1;" vertex="1" parent="j3mY_wfvXanM_TIgXk8w-11">
          <mxGeometry y="30" width="140" height="100" as="geometry" />
        </mxCell>
        <mxCell id="j3mY_wfvXanM_TIgXk8w-13" style="edgeStyle=orthogonalEdgeStyle;rounded=0;orthogonalLoop=1;jettySize=auto;html=1;entryX=0.029;entryY=0.311;entryDx=0;entryDy=0;entryPerimeter=0;" edge="1" parent="1" source="j3mY_wfvXanM_TIgXk8w-5" target="j3mY_wfvXanM_TIgXk8w-12">
          <mxGeometry relative="1" as="geometry" />
        </mxCell>
        <mxCell id="j3mY_wfvXanM_TIgXk8w-16" style="edgeStyle=orthogonalEdgeStyle;rounded=0;orthogonalLoop=1;jettySize=auto;html=1;" edge="1" parent="1" source="j3mY_wfvXanM_TIgXk8w-14" target="j3mY_wfvXanM_TIgXk8w-11">
          <mxGeometry relative="1" as="geometry" />
        </mxCell>
        <mxCell id="j3mY_wfvXanM_TIgXk8w-14" value="instruktorzy-kursy" style="swimlane;fontStyle=0;childLayout=stackLayout;horizontal=1;startSize=30;horizontalStack=0;resizeParent=1;resizeParentMax=0;resizeLast=0;collapsible=1;marginBottom=0;whiteSpace=wrap;html=1;" vertex="1" parent="1">
          <mxGeometry x="480" y="300" width="140" height="90" as="geometry" />
        </mxCell>
        <mxCell id="j3mY_wfvXanM_TIgXk8w-15" value="InstruktorID(FK)&lt;div&gt;&lt;br&gt;&lt;/div&gt;&lt;div&gt;KursID(FK)&lt;/div&gt;" style="text;strokeColor=none;fillColor=none;align=left;verticalAlign=middle;spacingLeft=4;spacingRight=4;overflow=hidden;points=[[0,0.5],[1,0.5]];portConstraint=eastwest;rotatable=0;whiteSpace=wrap;html=1;" vertex="1" parent="j3mY_wfvXanM_TIgXk8w-14">
          <mxGeometry y="30" width="140" height="60" as="geometry" />
        </mxCell>
        <mxCell id="j3mY_wfvXanM_TIgXk8w-17" style="edgeStyle=orthogonalEdgeStyle;rounded=0;orthogonalLoop=1;jettySize=auto;html=1;entryX=1.007;entryY=0.373;entryDx=0;entryDy=0;entryPerimeter=0;" edge="1" parent="1" source="j3mY_wfvXanM_TIgXk8w-14" target="j3mY_wfvXanM_TIgXk8w-3">
          <mxGeometry relative="1" as="geometry">
            <Array as="points">
              <mxPoint x="430" y="345" />
              <mxPoint x="430" y="250" />
              <mxPoint x="391" y="250" />
            </Array>
          </mxGeometry>
        </mxCell>
        <mxCell id="j3mY_wfvXanM_TIgXk8w-21" value="Lekcje" style="swimlane;fontStyle=0;childLayout=stackLayout;horizontal=1;startSize=30;horizontalStack=0;resizeParent=1;resizeParentMax=0;resizeLast=0;collapsible=1;marginBottom=0;whiteSpace=wrap;html=1;" vertex="1" parent="1">
          <mxGeometry x="620" y="700" width="140" height="120" as="geometry">
            <mxRectangle x="620" y="700" width="80" height="30" as="alternateBounds" />
          </mxGeometry>
        </mxCell>
        <mxCell id="j3mY_wfvXanM_TIgXk8w-22" value="LekcjaID(PK)&lt;div&gt;&lt;br&gt;&lt;div&gt;KursID(FK)&lt;/div&gt;&lt;div&gt;&lt;br&gt;&lt;/div&gt;&lt;div&gt;tytuÅ‚&lt;/div&gt;&lt;/div&gt;" style="text;strokeColor=none;fillColor=none;align=left;verticalAlign=middle;spacingLeft=4;spacingRight=4;overflow=hidden;points=[[0,0.5],[1,0.5]];portConstraint=eastwest;rotatable=0;whiteSpace=wrap;html=1;" vertex="1" parent="j3mY_wfvXanM_TIgXk8w-21">
          <mxGeometry y="30" width="140" height="90" as="geometry" />
        </mxCell>
        <mxCell id="j3mY_wfvXanM_TIgXk8w-24" value="Autor" style="swimlane;fontStyle=0;childLayout=stackLayout;horizontal=1;startSize=30;horizontalStack=0;resizeParent=1;resizeParentMax=0;resizeLast=0;collapsible=1;marginBottom=0;whiteSpace=wrap;html=1;" vertex="1" parent="1">
          <mxGeometry x="60" y="370" width="140" height="90" as="geometry" />
        </mxCell>
        <mxCell id="j3mY_wfvXanM_TIgXk8w-25" value="AutroID(PK)&lt;div&gt;&lt;br&gt;&lt;/div&gt;&lt;div&gt;Imie&lt;/div&gt;" style="text;strokeColor=none;fillColor=none;align=left;verticalAlign=middle;spacingLeft=4;spacingRight=4;overflow=hidden;points=[[0,0.5],[1,0.5]];portConstraint=eastwest;rotatable=0;whiteSpace=wrap;html=1;" vertex="1" parent="j3mY_wfvXanM_TIgXk8w-24">
          <mxGeometry y="30" width="140" height="60" as="geometry" />
        </mxCell>
        <mxCell id="j3mY_wfvXanM_TIgXk8w-26" value="Autorzy-kursy" style="swimlane;fontStyle=0;childLayout=stackLayout;horizontal=1;startSize=30;horizontalStack=0;resizeParent=1;resizeParentMax=0;resizeLast=0;collapsible=1;marginBottom=0;whiteSpace=wrap;html=1;" vertex="1" parent="1">
          <mxGeometry x="274" y="400" width="140" height="90" as="geometry" />
        </mxCell>
        <mxCell id="j3mY_wfvXanM_TIgXk8w-27" value="AutorID(FK)&lt;div&gt;&lt;br&gt;&lt;/div&gt;&lt;div&gt;KursID(FK)&lt;/div&gt;" style="text;strokeColor=none;fillColor=none;align=left;verticalAlign=middle;spacingLeft=4;spacingRight=4;overflow=hidden;points=[[0,0.5],[1,0.5]];portConstraint=eastwest;rotatable=0;whiteSpace=wrap;html=1;" vertex="1" parent="j3mY_wfvXanM_TIgXk8w-26">
          <mxGeometry y="30" width="140" height="60" as="geometry" />
        </mxCell>
        <mxCell id="j3mY_wfvXanM_TIgXk8w-28" style="edgeStyle=orthogonalEdgeStyle;rounded=0;orthogonalLoop=1;jettySize=auto;html=1;entryX=0.036;entryY=0.167;entryDx=0;entryDy=0;entryPerimeter=0;" edge="1" parent="1" source="j3mY_wfvXanM_TIgXk8w-25" target="j3mY_wfvXanM_TIgXk8w-27">
          <mxGeometry relative="1" as="geometry" />
        </mxCell>
        <mxCell id="j3mY_wfvXanM_TIgXk8w-29" style="edgeStyle=orthogonalEdgeStyle;rounded=0;orthogonalLoop=1;jettySize=auto;html=1;entryX=0;entryY=-0.044;entryDx=0;entryDy=0;entryPerimeter=0;" edge="1" parent="1" source="j3mY_wfvXanM_TIgXk8w-27" target="j3mY_wfvXanM_TIgXk8w-12">
          <mxGeometry relative="1" as="geometry" />
        </mxCell>
        <mxCell id="j3mY_wfvXanM_TIgXk8w-39" style="edgeStyle=orthogonalEdgeStyle;rounded=0;orthogonalLoop=1;jettySize=auto;html=1;entryX=0.979;entryY=0.422;entryDx=0;entryDy=0;entryPerimeter=0;" edge="1" parent="1" source="j3mY_wfvXanM_TIgXk8w-21" target="j3mY_wfvXanM_TIgXk8w-12">
          <mxGeometry relative="1" as="geometry" />
        </mxCell>
        <mxCell id="j3mY_wfvXanM_TIgXk8w-41" value="edycjalekcji" style="swimlane;fontStyle=0;childLayout=stackLayout;horizontal=1;startSize=30;horizontalStack=0;resizeParent=1;resizeParentMax=0;resizeLast=0;collapsible=1;marginBottom=0;whiteSpace=wrap;html=1;" vertex="1" parent="1">
          <mxGeometry x="400" y="760" width="140" height="120" as="geometry">
            <mxRectangle x="620" y="700" width="80" height="30" as="alternateBounds" />
          </mxGeometry>
        </mxCell>
        <mxCell id="j3mY_wfvXanM_TIgXk8w-42" value="&lt;div&gt;EdycjaID&lt;/div&gt;&lt;div&gt;&lt;br&gt;&lt;/div&gt;LekcjaID(FK)&lt;div&gt;&lt;div&gt;&lt;br&gt;&lt;/div&gt;&lt;/div&gt;&lt;div&gt;GrupyID(FK)&lt;/div&gt;" style="text;strokeColor=none;fillColor=none;align=left;verticalAlign=middle;spacingLeft=4;spacingRight=4;overflow=hidden;points=[[0,0.5],[1,0.5]];portConstraint=eastwest;rotatable=0;whiteSpace=wrap;html=1;" vertex="1" parent="j3mY_wfvXanM_TIgXk8w-41">
          <mxGeometry y="30" width="140" height="90" as="geometry" />
        </mxCell>
        <mxCell id="j3mY_wfvXanM_TIgXk8w-46" style="edgeStyle=orthogonalEdgeStyle;rounded=0;orthogonalLoop=1;jettySize=auto;html=1;" edge="1" parent="1" source="j3mY_wfvXanM_TIgXk8w-42" target="j3mY_wfvXanM_TIgXk8w-22">
          <mxGeometry relative="1" as="geometry" />
        </mxCell>
        <mxCell id="j3mY_wfvXanM_TIgXk8w-49" value="grupy" style="swimlane;fontStyle=0;childLayout=stackLayout;horizontal=1;startSize=30;horizontalStack=0;resizeParent=1;resizeParentMax=0;resizeLast=0;collapsible=1;marginBottom=0;whiteSpace=wrap;html=1;" vertex="1" parent="1">
          <mxGeometry x="180" y="930" width="140" height="120" as="geometry" />
        </mxCell>
        <mxCell id="j3mY_wfvXanM_TIgXk8w-50" value="GrupaID(PK)&lt;div&gt;&lt;br&gt;&lt;/div&gt;&lt;div&gt;Instruktor(FK)&lt;/div&gt;" style="text;strokeColor=none;fillColor=none;align=left;verticalAlign=middle;spacingLeft=4;spacingRight=4;overflow=hidden;points=[[0,0.5],[1,0.5]];portConstraint=eastwest;rotatable=0;whiteSpace=wrap;html=1;" vertex="1" parent="j3mY_wfvXanM_TIgXk8w-49">
          <mxGeometry y="30" width="140" height="90" as="geometry" />
        </mxCell>
        <mxCell id="j3mY_wfvXanM_TIgXk8w-52" value="Grupy-studenci" style="swimlane;fontStyle=0;childLayout=stackLayout;horizontal=1;startSize=30;horizontalStack=0;resizeParent=1;resizeParentMax=0;resizeLast=0;collapsible=1;marginBottom=0;whiteSpace=wrap;html=1;" vertex="1" parent="1">
          <mxGeometry x="50" y="715" width="140" height="120" as="geometry" />
        </mxCell>
        <mxCell id="j3mY_wfvXanM_TIgXk8w-53" value="&lt;div&gt;StudenciID(FK)&lt;/div&gt;&lt;div&gt;&lt;br&gt;&lt;/div&gt;GrupaID(FK)" style="text;strokeColor=none;fillColor=none;align=left;verticalAlign=middle;spacingLeft=4;spacingRight=4;overflow=hidden;points=[[0,0.5],[1,0.5]];portConstraint=eastwest;rotatable=0;whiteSpace=wrap;html=1;" vertex="1" parent="j3mY_wfvXanM_TIgXk8w-52">
          <mxGeometry y="30" width="140" height="90" as="geometry" />
        </mxCell>
        <mxCell id="j3mY_wfvXanM_TIgXk8w-54" style="edgeStyle=orthogonalEdgeStyle;rounded=0;orthogonalLoop=1;jettySize=auto;html=1;entryX=0.8;entryY=-0.017;entryDx=0;entryDy=0;entryPerimeter=0;" edge="1" parent="1" source="j3mY_wfvXanM_TIgXk8w-53" target="j3mY_wfvXanM_TIgXk8w-49">
          <mxGeometry relative="1" as="geometry" />
        </mxCell>
        <mxCell id="j3mY_wfvXanM_TIgXk8w-55" style="edgeStyle=orthogonalEdgeStyle;rounded=0;orthogonalLoop=1;jettySize=auto;html=1;entryX=0.393;entryY=1.056;entryDx=0;entryDy=0;entryPerimeter=0;" edge="1" parent="1" source="j3mY_wfvXanM_TIgXk8w-49" target="j3mY_wfvXanM_TIgXk8w-42">
          <mxGeometry relative="1" as="geometry" />
        </mxCell>
        <mxCell id="j3mY_wfvXanM_TIgXk8w-56" style="edgeStyle=orthogonalEdgeStyle;rounded=0;orthogonalLoop=1;jettySize=auto;html=1;entryX=0;entryY=0.25;entryDx=0;entryDy=0;" edge="1" parent="1" source="j3mY_wfvXanM_TIgXk8w-3" target="j3mY_wfvXanM_TIgXk8w-49">
          <mxGeometry relative="1" as="geometry">
            <Array as="points">
              <mxPoint x="30" y="295" />
              <mxPoint x="30" y="960" />
            </Array>
          </mxGeometry>
        </mxCell>
      </root>
    </mxGraphModel>
  </diagram>
</mxfile>
